<?xml version="1.0" encoding="UTF-8" standalone="no"?>
<!-- Created with Inkscape (http://www.inkscape.org/) -->

<svg
   width="120"
   height="120"
   viewBox="0 0 31.75 31.75"
   version="1.1"
   id="svg5"
   inkscape:version="1.2.2 (b0a8486541, 2022-12-01)"
   sodipodi:docname="discord icon.svg"
   inkscape:export-filename="/var/home/arthur/Downloads/icon (blue).png"
   inkscape:export-xdpi="409.60001"
   inkscape:export-ydpi="409.60001"
   xmlns:inkscape="http://www.inkscape.org/namespaces/inkscape"
   xmlns:sodipodi="http://sodipodi.sourceforge.net/DTD/sodipodi-0.dtd"
   xmlns="http://www.w3.org/2000/svg"
   xmlns:svg="http://www.w3.org/2000/svg">
  <sodipodi:namedview
     id="namedview7"
     pagecolor="#ffffff"
     bordercolor="#666666"
     borderopacity="1.0"
     inkscape:pageshadow="2"
     inkscape:pageopacity="0.0"
     inkscape:pagecheckerboard="0"
     inkscape:document-units="px"
     showgrid="false"
     inkscape:zoom="1.8942189"
     inkscape:cx="45.929221"
     inkscape:cy="117.1987"
     inkscape:window-width="956"
     inkscape:window-height="1059"
     inkscape:window-x="0"
     inkscape:window-y="17"
     inkscape:window-maximized="1"
     inkscape:current-layer="layer1"
     inkscape:showpageshadow="2"
     inkscape:deskcolor="#d1d1d1" />
  <defs
     id="defs2" />
  <g
     inkscape:label="Layer 1"
     inkscape:groupmode="layer"
     id="layer1">
    <path
       style="fill:none;stroke:#d53f8c;stroke-width:0.854897;stroke-linecap:square;stroke-linejoin:bevel;stroke-miterlimit:4;stroke-dasharray:1.7098, 5.1294;stroke-dashoffset:6.41174;stroke-opacity:1;fill-opacity:1"
       d="M 6.3830432,25.121966 H 22.762079"
       id="path1334" />
    <path
       fill="currentColor"
       d="m 12.067377,10.656595 c 0.884044,0 1.601288,-0.7172424 1.601288,-1.6012868 0,-0.8840435 -0.717244,-1.601286 -1.601288,-1.601286 -0.884043,0 -1.601286,0.7172426 -1.601286,1.601286 0,0.8840445 0.717243,1.6012868 1.601286,1.6012868 z m 3.152534,4.973997 -0.777292,-0.393649 -0.323593,-0.980789 c -0.490394,-1.487862 -1.85816,-2.528698 -3.409406,-2.532035 -1.2009651,-0.0033 -1.8648318,0.336938 -3.1125012,0.840676 -0.7205785,0.290233 -1.3110535,0.840676 -1.6579985,1.541239 l -0.2235131,0.453698 c -0.2602089,0.52709 -0.050038,1.167604 0.4737142,1.431149 0.5204177,0.263545 1.1542608,0.05004 1.4178058,-0.477049 l 0.223513,-0.453699 c 0.1167607,-0.23352 0.3102493,-0.417001 0.5504422,-0.513745 l 0.8940518,-0.360291 -0.507074,2.024961 c -0.1734733,0.693891 0.013345,1.431151 0.4970657,1.961577 l 1.9982721,2.181753 c 0.240192,0.263545 0.41033,0.580467 0.497066,0.924075 l 0.61049,2.445299 c 0.14345,0.570459 0.723916,0.920739 1.294374,0.777291 0.570458,-0.14345 0.920741,-0.723915 0.777291,-1.294374 l -0.740595,-2.969053 c -0.08674,-0.343609 -0.256873,-0.663865 -0.497066,-0.924075 l -1.517886,-1.657998 0.573794,-2.291843 0.183481,0.550443 c 0.176809,0.537098 0.557114,0.980788 1.057517,1.234325 l 0.777291,0.39365 c 0.520418,0.263545 1.154261,0.05004 1.417806,-0.47705 0.256873,-0.523755 0.0467,-1.170941 -0.47705,-1.434486 z M 7.5837751,20.324364 C 7.4770227,20.594582 7.3168939,20.838109 7.1100609,21.041606 L 5.4420538,22.71295 c -0.4170014,0.417002 -0.4170014,1.094212 0,1.511214 0.4170024,0.417001 1.0908766,0.417001 1.507879,0 l 1.9815917,-1.981593 c 0.203497,-0.203497 0.3636258,-0.447025 0.4737142,-0.717242 L 9.8556008,20.397756 C 8.010785,18.386139 8.5645633,19.003302 8.27433,18.606316 Z"
       id="path1082"
       style="fill:#d53f8c;fill-opacity:1;stroke-width:0.0333601" />
    <path
       fill="currentColor"
       d="m 21.834409,24.150047 c -3.284521,-4.76158 -3.894188,-5.250264 -3.894188,-7.000216 0,-2.397055 1.943182,-4.340239 4.340238,-4.340239 2.397055,0 4.340238,1.943184 4.340238,4.340239 0,1.749952 -0.609668,2.238636 -3.894189,7.000216 -0.215542,0.311367 -0.676579,0.311345 -0.892099,0 z m 0.44605,-5.191784 c 0.998775,0 1.808432,-0.809658 1.808432,-1.808432 0,-0.998775 -0.809657,-1.808433 -1.808432,-1.808433 -0.998775,0 -1.808433,0.809658 -1.808433,1.808433 0,0.998774 0.809658,1.808432 1.808433,1.808432 z"
       id="path1581"
       style="fill:#d53f8c;stroke-width:0.0226054;fill-opacity:1" />
  </g>
</svg>
